<svg xmlns="http://www.w3.org/2000/svg" viewBox="0 0 1056.04 211.15"><defs><style>.cls-1{fill:#454545;}</style></defs><g id="Layer_2" data-name="Layer 2"><g id="Layer_1-2" data-name="Layer 1"><path class="cls-1" d="M262.56,58.37l-32.33,140c-1.62,7.05-8.65,12.76-15.7,12.76H10.15c-7,0-11.44-5.71-9.81-12.76L22.14,104c1.62-7,8.65-12.76,15.7-12.76H214.58l1.2-5.21H39c-7,0-11.44-5.71-9.81-12.76l3.44-14.88c1.62-7,8.65-12.76,15.7-12.76H252.75C259.79,45.61,264.19,51.32,262.56,58.37ZM57.42,156.67H199.47l1.2-5.22h-142Z"/><path class="cls-1" d="M332.77,12.76l-3.43,14.88c-1.63,7-8.66,12.76-15.71,12.76h-29c-7,0-11.44-5.71-9.81-12.76l3.44-14.88C279.91,5.71,287,0,294,0h29C330,0,334.4,5.71,332.77,12.76ZM322.24,58.37l-32.32,140c-1.63,7.05-8.66,12.76-15.71,12.76h-29c-7,0-11.44-5.71-9.81-12.76l32.33-140c1.62-7,8.66-12.76,15.7-12.76h29C319.48,45.61,323.87,51.32,322.24,58.37Z"/><path class="cls-1" d="M353.69,0h36c7.05,0,11.44,5.71,9.81,12.76l-4.64,20.09c-1.62,7,2.77,12.76,9.82,12.76H561.62c7,0,11.44,5.71,9.81,12.76L568,73.25c-1.63,7-8.66,12.76-15.71,12.76H395.36c-7.05,0-14.08,5.71-15.7,12.76l-10.42,45.14c-1.63,7,2.76,12.76,9.81,12.76H536c7,0,11.44,5.71,9.82,12.75l-6.69,29c-1.63,7.05-8.66,12.76-15.71,12.76H304.94c-7.05,0-11.44-5.71-9.82-12.76L338,12.76C339.61,5.71,346.64,0,353.69,0Z"/><path class="cls-1" d="M544.3,198.39l32.33-140c1.63-7,8.66-12.76,15.71-12.76H803.76c7,0,11.44,5.71,9.81,12.76l-32.33,140c-1.62,7.05-8.66,12.76-15.7,12.76H554.12C547.07,211.15,542.68,205.44,544.3,198.39Zm76.88-41.72H737.72c7,0,14.08-5.72,15.7-12.76l10.42-45.14c1.63-7-2.76-12.76-9.81-12.76H637.5c-7,0-14.08,5.71-15.71,12.76l-10.42,45.14C609.74,151,614.14,156.67,621.18,156.67Z"/><path class="cls-1" d="M1055.71,58.37l-3.5,15.14c-1.63,7-8.66,12.76-15.7,12.76H945.36A15.05,15.05,0,0,0,938.47,88l-74.76,38.84a17.23,17.23,0,0,0-8.81,11l-14,60.52c-1.63,7.05-8.66,12.76-15.7,12.76h-29c-7,0-11.44-5.71-9.81-12.76l32.33-140c1.62-7,8.65-12.76,15.7-12.76h29c7,0,11.44,5.71,9.82,12.76h0c-2.2,9.54,6.46,15.7,16,11.36l45.95-21c2-.92,11.06-3.08,13.08-3.08h97.65C1052.94,45.61,1057.33,51.32,1055.71,58.37Z"/></g></g></svg>