<svg xmlns="http://www.w3.org/2000/svg" viewBox="0 0 370.32 89.04"><defs><style>.cls-1{fill:#f5f5f5;}</style></defs><g id="Layer_2" data-name="Layer 2"><g id="Layer_1-2" data-name="Layer 1"><path class="cls-1" d="M45,1.32H24.48L0,87H14.88L18.6,73.8l16.08.12,16.08-.12L54.48,87H69.36l-.12-.36ZM22.92,60,34.68,18.12,46.56,60Z"/><rect class="cls-1" x="83.76" y="1.32" width="15.12" height="85.68"/><polygon class="cls-1" points="135 1.32 113.88 1.32 113.88 15.24 135 15.24 135 87 150.12 87 150.12 15.24 171.24 15.24 171.24 1.32 150.12 1.32 135 1.32"/><path class="cls-1" d="M234.72,10.62a34.13,34.13,0,0,0-11-7.92A31.34,31.34,0,0,0,210.84,0a36.75,36.75,0,0,0-10.2,1.38,30.21,30.21,0,0,0-9.36,4.68,31.73,31.73,0,0,0-7.86,8.28,41.67,41.67,0,0,0-5.28,12.78,71.86,71.86,0,0,0-2,17.64,62.89,62.89,0,0,0,2.94,20Q182,73.56,187,78.66a34.15,34.15,0,0,0,11,7.74,32.54,32.54,0,0,0,25.68,0,34.82,34.82,0,0,0,11-7.74q5-5.1,7.86-13.86a64.1,64.1,0,0,0,2.88-20,64.67,64.67,0,0,0-2.88-20.1A36.8,36.8,0,0,0,234.72,10.62Zm-9.18,57.12a17.35,17.35,0,0,1-14.7,7.38A18.4,18.4,0,0,1,201.78,73a16.93,16.93,0,0,1-6-5.28,27.65,27.65,0,0,1-3.42-7.5,46.7,46.7,0,0,1-1.74-8,64.18,64.18,0,0,1-.42-7.44q0-31.08,20.64-31.08a17.86,17.86,0,0,1,7.5,1.56,19,19,0,0,1,6.36,4.92,23.91,23.91,0,0,1,4.62,9.66A58.47,58.47,0,0,1,231,44.76Q231,60.36,225.54,67.74Z"/><path class="cls-1" d="M308.58,41.34A24.41,24.41,0,0,0,313.08,27v-.6A22.81,22.81,0,0,0,309,13.08a26.62,26.62,0,0,0-9.9-8.82,25.73,25.73,0,0,0-11.7-2.94H257.16V87h15.12V52.68h9.24L299,87h16.32L296.88,50.52A24.89,24.89,0,0,0,308.58,41.34ZM287,38.52H271.92V15h15.24a11.27,11.27,0,0,1,11.28,11.28v.6A11.11,11.11,0,0,1,295.08,35,11.41,11.41,0,0,1,287,38.52Z"/><polygon class="cls-1" points="325.32 1.73 325.32 15.07 347.54 15.07 325.63 36.97 335.08 46.42 356.98 24.52 356.98 46.73 370.32 46.73 370.32 1.73 325.32 1.73"/><rect class="cls-1" x="339.73" y="55.3" width="1.51" height="1.51"/><rect class="cls-1" x="339.73" y="59.49" width="1.51" height="1.51"/><rect class="cls-1" x="343.71" y="55.3" width="1.51" height="1.51"/><rect class="cls-1" x="343.71" y="59.49" width="1.51" height="1.51"/><polygon class="cls-1" points="356.99 53.13 355.39 53.13 354.18 58.63 352.8 53.13 350.91 53.13 349.47 58.53 348.28 53.13 346.65 53.13 348.54 61 350.26 61 351.82 55.11 353.39 61 355.08 61 356.99 53.13"/><path class="cls-1" d="M360.85,59.81a.92.92,0,0,1-.6.19,1.13,1.13,0,0,1-.87-.37,1.55,1.55,0,0,1-.36-1.05h3.78a3.72,3.72,0,0,0-.71-2.57,2.53,2.53,0,0,0-2-.84,2.42,2.42,0,0,0-1.87.8,3.17,3.17,0,0,0-.74,2.22,3.32,3.32,0,0,0,.56,2,2.57,2.57,0,0,0,2.2,1,2.77,2.77,0,0,0,1.57-.43,2.51,2.51,0,0,0,.92-1.26l-1.51-.26A1.2,1.2,0,0,1,360.85,59.81Zm-1.49-3.13a1,1,0,0,1,.82-.36,1.06,1.06,0,0,1,.78.34,1.43,1.43,0,0,1,.34,1H359A1.44,1.44,0,0,1,359.36,56.68Z"/><path class="cls-1" d="M364.28,53.13V61h1.4v-.84a2.32,2.32,0,0,0,.82.72,2,2,0,0,0,1,.25,2.17,2.17,0,0,0,1.69-.79,3.33,3.33,0,0,0,.69-2.25,3.15,3.15,0,0,0-.68-2.17,2.24,2.24,0,0,0-1.73-.75,2.14,2.14,0,0,0-1.65.79V53.13Zm1.86,3.61a1.14,1.14,0,0,1,.9-.42,1.15,1.15,0,0,1,.91.43,2.21,2.21,0,0,1,.35,1.41,2.08,2.08,0,0,1-.35,1.35,1.08,1.08,0,0,1-.85.43,1.18,1.18,0,0,1-1-.61,2.36,2.36,0,0,1-.28-1.31A1.94,1.94,0,0,1,366.14,56.74Z"/><rect class="cls-1" x="325.09" y="68.3" width="1.51" height="1.51"/><rect class="cls-1" x="325.09" y="72.49" width="1.51" height="1.51"/><rect class="cls-1" x="329.07" y="68.3" width="1.51" height="1.51"/><rect class="cls-1" x="329.07" y="72.49" width="1.51" height="1.51"/><path class="cls-1" d="M338.36,67a2.52,2.52,0,0,0-1.19-.72,5.62,5.62,0,0,0-1.49-.15h-2.91V74h3a4.83,4.83,0,0,0,1.41-.17,2.92,2.92,0,0,0,1.12-.62,3.59,3.59,0,0,0,.84-1.4,5.17,5.17,0,0,0,.24-1.67,5.83,5.83,0,0,0-.26-1.86A3.39,3.39,0,0,0,338.36,67Zm-.79,4.51a1.69,1.69,0,0,1-.42.76,1.56,1.56,0,0,1-.64.33,4.45,4.45,0,0,1-1,.07h-1.19V67.46h.71a7.42,7.42,0,0,1,1.31.07,1.53,1.53,0,0,1,.73.37,1.82,1.82,0,0,1,.46.77,4.92,4.92,0,0,1,.16,1.4A5.4,5.4,0,0,1,337.57,71.51Z"/><path class="cls-1" d="M345.21,69a2.53,2.53,0,0,0-2-.84,2.42,2.42,0,0,0-1.87.8,3.12,3.12,0,0,0-.74,2.22,3.25,3.25,0,0,0,.56,2,2.57,2.57,0,0,0,2.2,1,2.77,2.77,0,0,0,1.57-.43,2.44,2.44,0,0,0,.91-1.26l-1.5-.26a1.14,1.14,0,0,1-.37.63.91.91,0,0,1-.59.19,1.13,1.13,0,0,1-.87-.37,1.55,1.55,0,0,1-.37-1h3.78A3.67,3.67,0,0,0,345.21,69Zm-3,1.65a1.4,1.4,0,0,1,.32-1,1,1,0,0,1,.81-.36,1.08,1.08,0,0,1,.79.34,1.54,1.54,0,0,1,.34,1Z"/><path class="cls-1" d="M352.26,72.22a1.43,1.43,0,0,0-.47-1.13,4.39,4.39,0,0,0-1.69-.67,5.76,5.76,0,0,1-1.41-.42.35.35,0,0,1-.15-.28.36.36,0,0,1,.17-.3,1.68,1.68,0,0,1,.86-.17,1.27,1.27,0,0,1,.73.18.88.88,0,0,1,.34.51l1.43-.26a2,2,0,0,0-.79-1.13,3.12,3.12,0,0,0-1.74-.38,2.7,2.7,0,0,0-1.81.5,1.59,1.59,0,0,0-.59,1.25,1.47,1.47,0,0,0,.68,1.28,8.18,8.18,0,0,0,2.31.74,1.15,1.15,0,0,1,.51.2.39.39,0,0,1,.1.28.47.47,0,0,1-.19.4,1.45,1.45,0,0,1-.88.22,1.32,1.32,0,0,1-.83-.23,1.05,1.05,0,0,1-.39-.67l-1.52.23a2.23,2.23,0,0,0,.89,1.29,3.23,3.23,0,0,0,1.85.47,2.85,2.85,0,0,0,1.93-.57A1.7,1.7,0,0,0,352.26,72.22Z"/><rect class="cls-1" x="353.9" y="66.13" width="1.51" height="1.4"/><rect class="cls-1" x="353.9" y="68.3" width="1.51" height="5.7"/><path class="cls-1" d="M361.09,69.1a2.09,2.09,0,0,0-1.75-.93,2.23,2.23,0,0,0-1.71.75,3.17,3.17,0,0,0-.69,2.2,3.3,3.3,0,0,0,.52,1.91,2.11,2.11,0,0,0,1.82,1,2.05,2.05,0,0,0,1.71-.92v.83a2.12,2.12,0,0,1-.07.69.73.73,0,0,1-.3.38,1.74,1.74,0,0,1-.89.18,1.1,1.1,0,0,1-.67-.16.57.57,0,0,1-.2-.41l-1.72-.21a1.21,1.21,0,0,0,0,.18,1.54,1.54,0,0,0,.61,1.26,3.28,3.28,0,0,0,2.05.49,4.09,4.09,0,0,0,1.27-.16,2,2,0,0,0,.81-.44,1.84,1.84,0,0,0,.46-.79,4.76,4.76,0,0,0,.17-1.51V68.3h-1.41Zm-.45,3.25a1.21,1.21,0,0,1-.94.43,1.07,1.07,0,0,1-.86-.42,2,2,0,0,1-.36-1.33,2,2,0,0,1,.36-1.29,1.1,1.1,0,0,1,.89-.42,1.14,1.14,0,0,1,.92.43,2,2,0,0,1,.37,1.32A1.92,1.92,0,0,1,360.64,72.35Z"/><path class="cls-1" d="M369.5,74V70.46a5.16,5.16,0,0,0-.08-1,1.67,1.67,0,0,0-.3-.63,1.51,1.51,0,0,0-.62-.46,2.35,2.35,0,0,0-2.8.78V68.3h-1.4V74h1.51V71.42a4.69,4.69,0,0,1,.12-1.31,1,1,0,0,1,.42-.57,1.19,1.19,0,0,1,.71-.22.89.89,0,0,1,.52.15.85.85,0,0,1,.32.42,4.84,4.84,0,0,1,.09,1.2V74Z"/><rect class="cls-1" x="346.87" y="85.49" width="1.51" height="1.51"/><rect class="cls-1" x="346.87" y="81.3" width="1.51" height="1.51"/><rect class="cls-1" x="350.85" y="85.49" width="1.51" height="1.51"/><rect class="cls-1" x="350.85" y="81.3" width="1.51" height="1.51"/><path class="cls-1" d="M356.82,79.13,353.75,87h1.69l.65-1.79h3.14l.69,1.79h1.73l-3.15-7.87Zm-.24,4.75L357.64,81l1.08,2.92Z"/><path class="cls-1" d="M364.79,81.35a2.38,2.38,0,0,0-.65.76V81.3h-1.4V87h1.51V85.24a9.37,9.37,0,0,1,.12-1.91,1.16,1.16,0,0,1,.35-.63.84.84,0,0,1,.54-.18,1.3,1.3,0,0,1,.71.25l.46-1.32a1.91,1.91,0,0,0-1-.28A1.2,1.2,0,0,0,364.79,81.35Z"/><path class="cls-1" d="M369.41,85.88a.45.45,0,0,1-.26-.08.31.31,0,0,1-.13-.19,5.65,5.65,0,0,1,0-.81V82.5h1V81.3h-1v-2l-1.52.88V81.3h-.69v1.2h.69V85a7.6,7.6,0,0,0,0,1.06,1.46,1.46,0,0,0,.21.59,1.07,1.07,0,0,0,.48.35,2,2,0,0,0,.74.14,3,3,0,0,0,1.19-.23L370,85.73A1.84,1.84,0,0,1,369.41,85.88Z"/></g></g></svg>