<svg xmlns="http://www.w3.org/2000/svg" viewBox="0 0 29.98 333.61"><defs><style>.cls-1{isolation:isolate;}.cls-2{fill:#707070;}.cls-3{fill:#2965ff;}</style></defs><g id="Layer_2" data-name="Layer 2"><g id="Layer_1-2" data-name="Layer 1"><g id="::Web_::Design_::Art" data-name="::Web ::Design ::Art" class="cls-1"><g class="cls-1"><path class="cls-2" d="M11.46,298.14H7v-4.51h4.42Zm11.74,0H18.82v-4.51H23.2Z"/><path class="cls-2" d="M11.46,287.48H7V283h4.42Zm11.74,0H18.82V283H23.2Z"/><path class="cls-2" d="M23.2,255.42v5.47l-12.74,3c-.74.17-1.51.34-2.3.49s-1.59.31-2.4.44l1.81.33,1.33.27,4.09,1q3.55.81,10.21,2.38v5.48l-22,5.66V275.2L15.39,272l3.46-.71-4.16-.86-4.35-1-9.16-2.12v-5.15l11.72-2.78c.42-.11,1.13-.25,2.12-.43l3.83-.69L17,257.88l-3.58-.83L1.18,254.4v-4.68Z"/><path class="cls-2" d="M23.52,241.12A7.54,7.54,0,0,1,21.28,247q-2.24,2-6.62,2A9.21,9.21,0,0,1,8.22,247,7.66,7.66,0,0,1,6,241.05a6.7,6.7,0,0,1,2.4-5.58q2.4-1.91,7.08-1.91h.12v10.85a6.48,6.48,0,0,0,3.75-.89,3,3,0,0,0,1.25-2.63,2.78,2.78,0,0,0-2-2.94l.35-4.13Q23.52,235.62,23.52,241.12Zm-14.78,0a2.8,2.8,0,0,0,1.08,2.36,5.1,5.1,0,0,0,3,.9v-6.56a5.27,5.27,0,0,0-3.07,1A2.85,2.85,0,0,0,8.74,241.12Z"/><path class="cls-2" d="M14.69,214.24a11,11,0,0,1,6.53,1.66,5.6,5.6,0,0,1,2.3,4.83,5.92,5.92,0,0,1-.78,3.12,5.19,5.19,0,0,1-2.26,2v0l.64,0,.86,0a3.79,3.79,0,0,1,1.22.16v4.26c-.49-.05-1.06-.08-1.7-.1s-1.36,0-2.17,0H0v-4.39H6.5l2.72.07v-.07A5.44,5.44,0,0,1,6,220.44a5.3,5.3,0,0,1,2.26-4.6A11,11,0,0,1,14.69,214.24Zm0,4.57a8.48,8.48,0,0,0-4.29.85A2.86,2.86,0,0,0,9,222.27,3,3,0,0,0,10.51,225a8.29,8.29,0,0,0,4.31.92A8.14,8.14,0,0,0,19,225a3,3,0,0,0,1.49-2.72C20.51,220,18.57,218.81,14.69,218.81Z"/><path class="cls-2" d="M11.46,201H7v-4.51h4.42Zm11.74,0H18.82v-4.51H23.2Z"/><path class="cls-2" d="M11.46,190.3H7v-4.51h4.42Zm11.74,0H18.82v-4.51H23.2Z"/><path class="cls-2" d="M12,161a12.61,12.61,0,0,1,4.63.75,10.22,10.22,0,0,1,3.53,2.21,9.51,9.51,0,0,1,2.26,3.41,11.37,11.37,0,0,1,.75,4.35v8.89h-22v-8c0-3.74.93-6.61,2.79-8.63S8.51,161,12,161Zm0,4.64a7.48,7.48,0,0,0-5.44,1.82,7.12,7.12,0,0,0-1.85,5.28V176H19.65v-3.9a5.89,5.89,0,0,0-2-4.73A8.33,8.33,0,0,0,12,165.6Z"/><path class="cls-2" d="M23.52,150.46a7.52,7.52,0,0,1-2.24,5.87q-2.24,2-6.62,2a9.16,9.16,0,0,1-6.44-2.07A7.62,7.62,0,0,1,6,150.4a6.72,6.72,0,0,1,2.4-5.59q2.4-1.91,7.08-1.9h.12v10.85a6.4,6.4,0,0,0,3.75-.9,3,3,0,0,0,1.25-2.62,2.78,2.78,0,0,0-2-3l.35-4.12Q23.52,145,23.52,150.46Zm-14.78,0a2.8,2.8,0,0,0,1.08,2.37,5.25,5.25,0,0,0,3,.9v-6.56a5.27,5.27,0,0,0-3.07,1A2.86,2.86,0,0,0,8.74,150.46Z"/><path class="cls-2" d="M18.27,125.34a4.45,4.45,0,0,1,3.84,2,9.46,9.46,0,0,1,1.41,5.56,10.65,10.65,0,0,1-1.1,5.35A5.41,5.41,0,0,1,19,140.7l-.58-3.87a3.73,3.73,0,0,0,1-.42,2,2,0,0,0,.69-.7,3.27,3.27,0,0,0,.39-1.12,11.23,11.23,0,0,0,.11-1.7,5.82,5.82,0,0,0-.47-2.67,1.57,1.57,0,0,0-1.48-.85,1.49,1.49,0,0,0-1.28.68,6.09,6.09,0,0,0-.8,2.3c-.24,1.24-.47,2.28-.71,3.12a11,11,0,0,1-.67,1.9,5.07,5.07,0,0,1-1.65,2,4.23,4.23,0,0,1-2.45.69,4.43,4.43,0,0,1-3.79-1.86A10.77,10.77,0,0,1,7.14,128a5.08,5.08,0,0,1,3.39-2.28l.41,3.9a2.31,2.31,0,0,0-1.55.9,4.16,4.16,0,0,0-.49,2.33,5.28,5.28,0,0,0,.4,2.35,1.36,1.36,0,0,0,1.32.79,1.38,1.38,0,0,0,1.17-.59,5.45,5.45,0,0,0,.72-2c.28-1.34.55-2.51.82-3.5a9.08,9.08,0,0,1,1-2.48,4,4,0,0,1,1.53-1.49A5.59,5.59,0,0,1,18.27,125.34Z"/><path class="cls-2" d="M3.23,121.79H0v-4.38H3.23Zm20,0H6.3v-4.38H23.2Z"/><path class="cls-2" d="M30,105.82a9.41,9.41,0,0,1-1.16,5,5,5,0,0,1-3.38,2.32l-.51-4.39a2.81,2.81,0,0,0,1.58-1,3.17,3.17,0,0,0,.59-2A3.11,3.11,0,0,0,26,103a5.59,5.59,0,0,0-3.35-.85h-.89l-1.67,0v0q3.11,1.48,3.11,5.44a5.37,5.37,0,0,1-2.21,4.6,10.71,10.71,0,0,1-6.37,1.61,10.6,10.6,0,0,1-6.4-1.66A5.69,5.69,0,0,1,6,107.29,5.19,5.19,0,0,1,9,102.17v-.06c-.17,0-.38,0-.64,0l-.83,0-.78-.1-.47-.06V97.73c1.14.06,2.44.09,3.91.09H22.69a7,7,0,0,1,5.47,2C29.38,101.21,30,103.2,30,105.82Zm-15.45-3.68a7.56,7.56,0,0,0-4.08.93A3,3,0,0,0,9,105.73c0,2.34,1.87,3.52,5.6,3.52s5.54-1.17,5.54-3.49a3,3,0,0,0-1.46-2.69A7.69,7.69,0,0,0,14.53,102.14Z"/><path class="cls-2" d="M23.2,82.4H13.73q-4.48,0-4.48,3A3,3,0,0,0,10.62,88a6,6,0,0,0,3.52,1H23.2v4.38H10.08c-.92,0-1.66,0-2.24,0l-1.54.08V89.28c.2,0,.73-.06,1.6-.1s1.47-.09,1.76-.09V89a6.51,6.51,0,0,1-2.83-2.24A5.74,5.74,0,0,1,6,83.58a5.15,5.15,0,0,1,1.67-4.14A7.28,7.28,0,0,1,12.48,78H23.2Z"/><path class="cls-2" d="M11.46,64.06H7V59.55h4.42Zm11.74,0H18.82V59.55H23.2Z"/><path class="cls-2" d="M11.46,53.41H7V48.89h4.42Zm11.74,0H18.82V48.89H23.2Z"/><path class="cls-2" d="M23.2,28.13l-5.63,1.95v8.38l5.63,1.95V45l-22-8V31.55l22-8ZM4.58,34.27l.35.1,1.28.38,7.9,2.69V31.1L7.78,33.28,5.66,34Z"/><path class="cls-2" d="M23.2,20.48H10.27c-1,0-1.74,0-2.35.05l-1.62.08V16.42c.15,0,.72-.06,1.7-.1s1.59-.1,1.89-.1v-.06A12.33,12.33,0,0,1,7.39,15a3.34,3.34,0,0,1-1.09-1.2A3.88,3.88,0,0,1,6,12.1a3.28,3.28,0,0,1,.26-1.35H9.86a8.55,8.55,0,0,0-.23,1.89A2.91,2.91,0,0,0,11,15.18a7,7,0,0,0,3.95.92H23.2Z"/><path class="cls-2" d="M23.49,3.71a4,4,0,0,1-1.06,3,4.36,4.36,0,0,1-3.2,1h-10V9.89H6.3V7.52l-4-1.38V3.39h4V.19h3v3.2h8.8q2.4,0,2.4-1.92A6.39,6.39,0,0,0,20.22,0h2.72A11.88,11.88,0,0,1,23.49,3.71Z"/></g></g><g id="Layer_2-2" data-name="Layer 2"><g id="Layer_1-3" data-name="Layer 1"><g id="Path_14" data-name="Path 14"><path class="cls-3" d="M.2,310.61v6.82H11.56L.36,328.63l4.83,4.82,11.19-11.19v11.35H23.2v-23Z"/></g></g></g></g></g></svg>